<?xml version="1.0" encoding="UTF-8" standalone="no"?>
<!DOCTYPE svg PUBLIC "-//W3C//DTD SVG 1.1//EN"
 "http://www.w3.org/Graphics/SVG/1.1/DTD/svg11.dtd">
<!-- Generated by graphviz version 2.30.1 (20180420.1509)
 -->
<!-- Title: %3 Pages: 1 -->
<svg width="738pt" height="334pt"
 viewBox="0.00 0.00 738.00 334.00" xmlns="http://www.w3.org/2000/svg" xmlns:xlink="http://www.w3.org/1999/xlink">
<g id="graph0" class="graph" transform="scale(1 1) rotate(0) translate(4 330)">
<title>%3</title>
<polygon fill="white" stroke="white" points="-4,5 -4,-330 735,-330 735,5 -4,5"/>
<!-- gateway -->
<g id="node1" class="node"><title>gateway</title>
<path fill="skyblue" stroke="black" d="M590,-326C590,-326 408,-326 408,-326 402,-326 396,-320 396,-314 396,-314 396,-300 396,-300 396,-294 402,-288 408,-288 408,-288 590,-288 590,-288 596,-288 602,-294 602,-300 602,-300 602,-314 602,-314 602,-320 596,-326 590,-326"/>
<text text-anchor="middle" x="499" y="-310.8" font-family="Times,serif" font-size="14.00">Gateway: Raisecom MSG2200&#45;T4</text>
<text text-anchor="middle" x="499" y="-295.8" font-family="Times,serif" font-size="14.00">provided by Shanghai Telecom</text>
</g>
<!-- router -->
<g id="node2" class="node"><title>router</title>
<path fill="aliceblue" stroke="black" d="M554,-252C554,-252 444,-252 444,-252 438,-252 432,-246 432,-240 432,-240 432,-228 432,-228 432,-222 438,-216 444,-216 444,-216 554,-216 554,-216 560,-216 566,-222 566,-228 566,-228 566,-240 566,-240 566,-246 560,-252 554,-252"/>
<text text-anchor="middle" x="499" y="-230.3" font-family="Times,serif" font-size="14.00">Router: H3C ER3260</text>
</g>
<!-- gateway&#45;&gt;router -->
<g id="edge1" class="edge"><title>gateway&#45;&gt;router</title>
<path fill="none" stroke="black" stroke-dasharray="5,2" d="M499,-287.716C499,-279.973 499,-270.789 499,-262.274"/>
<polygon fill="black" stroke="black" points="502.5,-262.003 499,-252.003 495.5,-262.003 502.5,-262.003"/>
</g>
<!-- switch_1 -->
<g id="node3" class="node"><title>switch_1</title>
<path fill="bisque" stroke="black" d="M407.25,-180C407.25,-180 348.75,-180 348.75,-180 342.75,-180 336.75,-174 336.75,-168 336.75,-168 336.75,-156 336.75,-156 336.75,-150 342.75,-144 348.75,-144 348.75,-144 407.25,-144 407.25,-144 413.25,-144 419.25,-150 419.25,-156 419.25,-156 419.25,-168 419.25,-168 419.25,-174 413.25,-180 407.25,-180"/>
<text text-anchor="middle" x="378" y="-158.3" font-family="Times,serif" font-size="14.00">H3C Switch</text>
</g>
<!-- router&#45;&gt;switch_1 -->
<g id="edge2" class="edge"><title>router&#45;&gt;switch_1</title>
<path fill="none" stroke="black" stroke-dasharray="5,2" d="M469.4,-215.876C453.433,-206.639 433.54,-195.131 416.394,-185.212"/>
<polygon fill="black" stroke="black" points="418.122,-182.168 407.714,-180.19 414.617,-188.227 418.122,-182.168"/>
</g>
<!-- switch_2 -->
<g id="node4" class="node"><title>switch_2</title>
<path fill="bisque" stroke="black" d="M528.25,-180C528.25,-180 469.75,-180 469.75,-180 463.75,-180 457.75,-174 457.75,-168 457.75,-168 457.75,-156 457.75,-156 457.75,-150 463.75,-144 469.75,-144 469.75,-144 528.25,-144 528.25,-144 534.25,-144 540.25,-150 540.25,-156 540.25,-156 540.25,-168 540.25,-168 540.25,-174 534.25,-180 528.25,-180"/>
<text text-anchor="middle" x="499" y="-158.3" font-family="Times,serif" font-size="14.00">H3C Switch</text>
</g>
<!-- router&#45;&gt;switch_2 -->
<g id="edge3" class="edge"><title>router&#45;&gt;switch_2</title>
<path fill="none" stroke="black" stroke-dasharray="5,2" d="M499,-215.697C499,-207.983 499,-198.712 499,-190.112"/>
<polygon fill="black" stroke="black" points="502.5,-190.104 499,-180.104 495.5,-190.104 502.5,-190.104"/>
</g>
<!-- switch_3 -->
<g id="node5" class="node"><title>switch_3</title>
<path fill="bisque" stroke="black" d="M660.25,-180C660.25,-180 601.75,-180 601.75,-180 595.75,-180 589.75,-174 589.75,-168 589.75,-168 589.75,-156 589.75,-156 589.75,-150 595.75,-144 601.75,-144 601.75,-144 660.25,-144 660.25,-144 666.25,-144 672.25,-150 672.25,-156 672.25,-156 672.25,-168 672.25,-168 672.25,-174 666.25,-180 660.25,-180"/>
<text text-anchor="middle" x="631" y="-158.3" font-family="Times,serif" font-size="14.00">H3C Switch</text>
</g>
<!-- router&#45;&gt;switch_3 -->
<g id="edge4" class="edge"><title>router&#45;&gt;switch_3</title>
<path fill="none" stroke="black" stroke-dasharray="5,2" d="M531.291,-215.876C548.869,-206.554 570.809,-194.919 589.629,-184.939"/>
<polygon fill="black" stroke="black" points="591.39,-187.967 598.585,-180.19 588.111,-181.783 591.39,-187.967"/>
</g>
<!-- uap_1 -->
<g id="node6" class="node"><title>uap_1</title>
<path fill="aquamarine" stroke="black" d="M213.25,-108C213.25,-108 104.75,-108 104.75,-108 98.75,-108 92.75,-102 92.75,-96 92.75,-96 92.75,-84 92.75,-84 92.75,-78 98.75,-72 104.75,-72 104.75,-72 213.25,-72 213.25,-72 219.25,-72 225.25,-78 225.25,-84 225.25,-84 225.25,-96 225.25,-96 225.25,-102 219.25,-108 213.25,-108"/>
<text text-anchor="middle" x="159" y="-86.3" font-family="Times,serif" font-size="14.00">UBNT UAP AC&#45;Lite</text>
</g>
<!-- switch_1&#45;&gt;uap_1 -->
<g id="edge5" class="edge"><title>switch_1&#45;&gt;uap_1</title>
<path fill="none" stroke="black" stroke-dasharray="5,2" d="M336.55,-147.751C304.222,-137.418 258.782,-122.894 221.965,-111.126"/>
<polygon fill="black" stroke="black" points="222.908,-107.753 212.317,-108.042 220.777,-114.421 222.908,-107.753"/>
</g>
<!-- uap_2 -->
<g id="node7" class="node"><title>uap_2</title>
<path fill="aquamarine" stroke="black" d="M432.25,-108C432.25,-108 323.75,-108 323.75,-108 317.75,-108 311.75,-102 311.75,-96 311.75,-96 311.75,-84 311.75,-84 311.75,-78 317.75,-72 323.75,-72 323.75,-72 432.25,-72 432.25,-72 438.25,-72 444.25,-78 444.25,-84 444.25,-84 444.25,-96 444.25,-96 444.25,-102 438.25,-108 432.25,-108"/>
<text text-anchor="middle" x="378" y="-86.3" font-family="Times,serif" font-size="14.00">UBNT UAP AC&#45;Lite</text>
</g>
<!-- switch_1&#45;&gt;uap_2 -->
<g id="edge6" class="edge"><title>switch_1&#45;&gt;uap_2</title>
<path fill="none" stroke="black" stroke-dasharray="5,2" d="M378,-143.697C378,-135.983 378,-126.712 378,-118.112"/>
<polygon fill="black" stroke="black" points="381.5,-118.104 378,-108.104 374.5,-118.104 381.5,-118.104"/>
</g>
<!-- pc_1 -->
<g id="node8" class="node"><title>pc_1</title>
<path fill="lightblue" stroke="black" d="M502,-36C502,-36 472,-36 472,-36 466,-36 460,-30 460,-24 460,-24 460,-12 460,-12 460,-6 466,-0 472,-0 472,-0 502,-0 502,-0 508,-0 514,-6 514,-12 514,-12 514,-24 514,-24 514,-30 508,-36 502,-36"/>
<text text-anchor="middle" x="487" y="-14.3" font-family="Times,serif" font-size="14.00">PC</text>
</g>
<!-- switch_2&#45;&gt;pc_1 -->
<g id="edge11" class="edge"><title>switch_2&#45;&gt;pc_1</title>
<path fill="none" stroke="black" stroke-dasharray="5,2" d="M497.553,-143.871C495.507,-119.67 491.75,-75.2108 489.315,-46.3932"/>
<polygon fill="black" stroke="black" points="492.782,-45.859 488.453,-36.1893 485.807,-46.4485 492.782,-45.859"/>
</g>
<!-- pc_2 -->
<g id="node9" class="node"><title>pc_2</title>
<path fill="lightblue" stroke="black" d="M574,-36C574,-36 544,-36 544,-36 538,-36 532,-30 532,-24 532,-24 532,-12 532,-12 532,-6 538,-0 544,-0 544,-0 574,-0 574,-0 580,-0 586,-6 586,-12 586,-12 586,-24 586,-24 586,-30 580,-36 574,-36"/>
<text text-anchor="middle" x="559" y="-14.3" font-family="Times,serif" font-size="14.00">PC</text>
</g>
<!-- switch_2&#45;&gt;pc_2 -->
<g id="edge12" class="edge"><title>switch_2&#45;&gt;pc_2</title>
<path fill="none" stroke="black" stroke-dasharray="5,2" d="M506.237,-143.871C516.553,-119.457 535.581,-74.4258 547.746,-45.6351"/>
<polygon fill="black" stroke="black" points="551.069,-46.763 551.737,-36.1893 544.621,-44.0385 551.069,-46.763"/>
</g>
<!-- pc_3 -->
<g id="node10" class="node"><title>pc_3</title>
<path fill="lightblue" stroke="black" d="M646,-36C646,-36 616,-36 616,-36 610,-36 604,-30 604,-24 604,-24 604,-12 604,-12 604,-6 610,-0 616,-0 616,-0 646,-0 646,-0 652,-0 658,-6 658,-12 658,-12 658,-24 658,-24 658,-30 652,-36 646,-36"/>
<text text-anchor="middle" x="631" y="-14.3" font-family="Times,serif" font-size="14.00">PC</text>
</g>
<!-- switch_3&#45;&gt;pc_3 -->
<g id="edge13" class="edge"><title>switch_3&#45;&gt;pc_3</title>
<path fill="none" stroke="black" stroke-dasharray="5,2" d="M631,-143.871C631,-119.67 631,-75.2108 631,-46.3932"/>
<polygon fill="black" stroke="black" points="634.5,-46.1892 631,-36.1893 627.5,-46.1893 634.5,-46.1892"/>
</g>
<!-- pc_4 -->
<g id="node11" class="node"><title>pc_4</title>
<path fill="lightblue" stroke="black" d="M718,-36C718,-36 688,-36 688,-36 682,-36 676,-30 676,-24 676,-24 676,-12 676,-12 676,-6 682,-0 688,-0 688,-0 718,-0 718,-0 724,-0 730,-6 730,-12 730,-12 730,-24 730,-24 730,-30 724,-36 718,-36"/>
<text text-anchor="middle" x="703" y="-14.3" font-family="Times,serif" font-size="14.00">PC</text>
</g>
<!-- switch_3&#45;&gt;pc_4 -->
<g id="edge14" class="edge"><title>switch_3&#45;&gt;pc_4</title>
<path fill="none" stroke="black" stroke-dasharray="5,2" d="M639.685,-143.871C652.118,-119.35 675.096,-74.0321 689.686,-45.2589"/>
<polygon fill="black" stroke="black" points="692.884,-46.6911 694.284,-36.1893 686.64,-43.5255 692.884,-46.6911"/>
</g>
<!-- mobile_phone_1 -->
<g id="node12" class="node"><title>mobile_phone_1</title>
<path fill="beige" stroke="black" d="M82,-36C82,-36 12,-36 12,-36 6,-36 -7.10543e-15,-30 -7.10543e-15,-24 -7.10543e-15,-24 -7.10543e-15,-12 -7.10543e-15,-12 -7.10543e-15,-6 6,-0 12,-0 12,-0 82,-0 82,-0 88,-0 94,-6 94,-12 94,-12 94,-24 94,-24 94,-30 88,-36 82,-36"/>
<text text-anchor="middle" x="47" y="-14.3" font-family="Times,serif" font-size="14.00">Mobile Phone</text>
</g>
<!-- uap_1&#45;&gt;mobile_phone_1 -->
<g id="edge7" class="edge"><title>uap_1&#45;&gt;mobile_phone_1</title>
<path fill="none" stroke="black" stroke-dasharray="5,2" d="M131.602,-71.8761C117.093,-62.8083 99.0837,-51.5523 83.4147,-41.7592"/>
<polygon fill="black" stroke="black" points="84.8386,-38.5218 74.5036,-36.1898 81.1286,-44.4578 84.8386,-38.5218"/>
</g>
<!-- mobile_phone_2 -->
<g id="node13" class="node"><title>mobile_phone_2</title>
<path fill="beige" stroke="black" d="M194,-36C194,-36 124,-36 124,-36 118,-36 112,-30 112,-24 112,-24 112,-12 112,-12 112,-6 118,-0 124,-0 124,-0 194,-0 194,-0 200,-0 206,-6 206,-12 206,-12 206,-24 206,-24 206,-30 200,-36 194,-36"/>
<text text-anchor="middle" x="159" y="-14.3" font-family="Times,serif" font-size="14.00">Mobile Phone</text>
</g>
<!-- uap_1&#45;&gt;mobile_phone_2 -->
<g id="edge8" class="edge"><title>uap_1&#45;&gt;mobile_phone_2</title>
<path fill="none" stroke="black" stroke-dasharray="5,2" d="M159,-71.6966C159,-63.9827 159,-54.7125 159,-46.1124"/>
<polygon fill="black" stroke="black" points="162.5,-46.1043 159,-36.1043 155.5,-46.1044 162.5,-46.1043"/>
</g>
<!-- mobile_phone_3 -->
<g id="node14" class="node"><title>mobile_phone_3</title>
<path fill="beige" stroke="black" d="M306,-36C306,-36 236,-36 236,-36 230,-36 224,-30 224,-24 224,-24 224,-12 224,-12 224,-6 230,-0 236,-0 236,-0 306,-0 306,-0 312,-0 318,-6 318,-12 318,-12 318,-24 318,-24 318,-30 312,-36 306,-36"/>
<text text-anchor="middle" x="271" y="-14.3" font-family="Times,serif" font-size="14.00">Mobile Phone</text>
</g>
<!-- uap_2&#45;&gt;mobile_phone_3 -->
<g id="edge9" class="edge"><title>uap_2&#45;&gt;mobile_phone_3</title>
<path fill="none" stroke="black" stroke-dasharray="5,2" d="M351.825,-71.8761C337.964,-62.8083 320.759,-51.5523 305.789,-41.7592"/>
<polygon fill="black" stroke="black" points="307.56,-38.7355 297.276,-36.1898 303.728,-44.5933 307.56,-38.7355"/>
</g>
<!-- wireless_printer -->
<g id="node15" class="node"><title>wireless_printer</title>
<path fill="beige" stroke="black" d="M429.25,-36C429.25,-36 348.75,-36 348.75,-36 342.75,-36 336.75,-30 336.75,-24 336.75,-24 336.75,-12 336.75,-12 336.75,-6 342.75,-0 348.75,-0 348.75,-0 429.25,-0 429.25,-0 435.25,-0 441.25,-6 441.25,-12 441.25,-12 441.25,-24 441.25,-24 441.25,-30 435.25,-36 429.25,-36"/>
<text text-anchor="middle" x="389" y="-14.3" font-family="Times,serif" font-size="14.00">Wireless Printer</text>
</g>
<!-- uap_2&#45;&gt;wireless_printer -->
<g id="edge10" class="edge"><title>uap_2&#45;&gt;wireless_printer</title>
<path fill="none" stroke="black" stroke-dasharray="5,2" d="M380.719,-71.6966C381.931,-63.9827 383.388,-54.7125 384.739,-46.1124"/>
<polygon fill="black" stroke="black" points="388.217,-46.5265 386.312,-36.1043 381.302,-45.4397 388.217,-46.5265"/>
</g>
</g>
</svg>
